<?xml version="1.0" encoding="UTF-8" standalone="no"?>
<svg
   xmlns:dc="http://purl.org/dc/elements/1.1/"
   xmlns:cc="http://creativecommons.org/ns#"
   xmlns:rdf="http://www.w3.org/1999/02/22-rdf-syntax-ns#"
   xmlns:svg="http://www.w3.org/2000/svg"
   xmlns="http://www.w3.org/2000/svg"
   width="512"
   height="512"
   viewBox="0 0 135.46666 135.46667"
   version="1.1"
   id="svg8">
  <defs
     id="defs2" />
  <metadata
     id="metadata5">
    <rdf:RDF>
      <cc:Work
         rdf:about="">
        <dc:format>image/svg+xml</dc:format>
        <dc:type
           rdf:resource="http://purl.org/dc/dcmitype/StillImage" />
        <dc:title></dc:title>
      </cc:Work>
    </rdf:RDF>
  </metadata>
  <g
     id="layer2"
     style="display:inline">
    <rect
       style="fill:#000000;fill-opacity:1;stroke:none;stroke-width:8.05675;stroke-linecap:round;stroke-linejoin:round;stroke-miterlimit:4;stroke-dasharray:none"
       id="rect1505"
       width="135.46666"
       height="135.46666"
       x="3.5603841e-06"
       y="3.5603841e-06"
       ry="0" />
  </g>
  <g
     id="layer1">
    <path
       id="path1484"
       style="fill:#4d4d4d;fill-opacity:1;stroke:none;stroke-width:19.2053;stroke-linecap:round;stroke-linejoin:round"
       d="M 440.44922 297.0918 A 188.97638 188.97638 0 0 0 440.84766 295.26172 L 440.44922 295.26172 L 440.44922 297.0918 z "
       transform="scale(0.26458333)" />
  </g>
  <g
     id="layer3"
     style="display:inline">
    <g
       id="g1577"
       transform="matrix(1.3546654,0,0,1.3546654,-24.022668,-24.014267)">
      <path
         id="path1565"
         style="fill:#4d4d4d;fill-opacity:1;stroke:none;stroke-width:19.2053;stroke-linecap:round;stroke-linejoin:round"
         d="M 82.769531,331.49219 H 429.23047 a 188.97638,188.97638 0 0 0 6.39062,-16.79297 H 76.378906 a 188.97638,188.97638 0 0 0 6.390625,16.79297 z m 0,0 A 188.97638,188.97638 0 0 0 256,444.95312 188.97638,188.97638 0 0 0 429.23047,331.49219 Z"
         transform="scale(0.26458333)" />
      <path
         id="path1558"
         style="fill:#ffffff;fill-opacity:1;stroke:none;stroke-width:19.2053;stroke-linecap:round;stroke-linejoin:round"
         d="m 71.152344,295.26172 a 188.97638,188.97638 0 0 0 5.226562,19.4375 H 435.62109 a 188.97638,188.97638 0 0 0 4.82813,-17.60742 v -1.83008 z"
         transform="scale(0.26458333)" />
      <path
         id="path1551"
         style="fill:#f26822;fill-opacity:1;stroke:none;stroke-width:19.2053;stroke-linecap:round;stroke-linejoin:round"
         d="M 256,67 A 188.97638,188.97638 0 0 0 67.023438,255.97656 188.97638,188.97638 0 0 0 71.152344,295.26172 H 440.84766 a 188.97638,188.97638 0 0 0 4.1289,-39.28516 A 188.97638,188.97638 0 0 0 256,67 Z"
         transform="scale(0.26458333)" />
      <text
         xml:space="preserve"
         style="font-style:normal;font-weight:normal;font-size:31.75px;line-height:1.25;font-family:sans-serif;fill:#000000;fill-opacity:1;stroke:none;stroke-width:0.264583"
         x="21.394268"
         y="78.425148"
         id="text1490"><tspan
           id="tspan1488"
           x="21.394268"
           y="78.425148"
           style="font-style:normal;font-variant:normal;font-weight:bold;font-stretch:normal;font-size:31.75px;font-family:sans-serif;-inkscape-font-specification:'sans-serif, Bold';font-variant-ligatures:normal;font-variant-caps:normal;font-variant-numeric:normal;font-variant-east-asian:normal;fill:#ffffff;fill-opacity:1;stroke-width:0.264583">SHUM</tspan></text>
    </g>
  </g>
</svg>
